<?xml version="1.0" encoding="utf-8"?>
<!-- Generator: Adobe Illustrator 16.0.0, SVG Export Plug-In . SVG Version: 6.00 Build 0)  -->
<!DOCTYPE svg PUBLIC "-//W3C//DTD SVG 1.1//EN" "http://www.w3.org/Graphics/SVG/1.1/DTD/svg11.dtd">
<svg version="1.1" xmlns="http://www.w3.org/2000/svg" xmlns:xlink="http://www.w3.org/1999/xlink" x="0px" y="0px"
	 width="1113.972px" height="298px" viewBox="0 0 1113.972 298" enable-background="new 0 0 1113.972 298" xml:space="preserve">
<g id="Layer_11" display="none">
</g>
<g id="b">
	<g id="_x31_">
	</g>
	<g id="_x32_">
	</g>
	<g id="_x33_">
	</g>
	<g id="_x34_">
	</g>
</g>
<g id="a_1_">
	<g id="_x31__copy">
	</g>
	<g id="_x32__copy">
		<g>
			<path fill="#1B1C51" d="M433.053,175.139c0,4.44-0.905,8.416-2.71,11.924c-1.808,3.511-4.234,6.48-7.278,8.905
				c-3.047,2.427-6.635,4.285-10.764,5.575c-4.13,1.292-8.517,1.936-13.162,1.936h-52.498V93.527h56.679
				c3.818,0,7.278,0.828,10.376,2.478c3.097,1.653,5.729,3.794,7.897,6.427c2.168,2.632,3.845,5.628,5.033,8.981
				c1.186,3.356,1.78,6.737,1.78,10.144c0,5.369-1.369,10.402-4.103,15.099c-2.737,4.7-6.636,8.184-11.692,10.454
				c6.296,1.858,11.278,5.241,14.943,10.143C431.219,162.157,433.053,168.119,433.053,175.139z M363.984,108.548v32.366h31.902
				c2.168,0,4.154-0.412,5.962-1.239c1.805-0.825,3.406-1.936,4.8-3.33c1.395-1.394,2.479-3.07,3.253-5.033
				c0.774-1.96,1.161-4.128,1.161-6.504c0-4.748-1.343-8.646-4.026-11.692c-2.686-3.044-6.093-4.568-10.221-4.568H363.984z
				 M415.244,171.886c0-2.27-0.388-4.438-1.162-6.504c-0.774-2.064-1.807-3.872-3.097-5.42c-1.293-1.548-2.865-2.787-4.724-3.716
				s-3.872-1.394-6.039-1.394h-36.238v33.605h35.154c2.27,0,4.387-0.438,6.349-1.316c1.96-0.876,3.664-2.064,5.11-3.562
				c1.445-1.495,2.579-3.252,3.407-5.265C414.83,176.3,415.244,174.158,415.244,171.886z"/>
			<path fill="#1B1C51" d="M526.587,188.146v15.332H451.17V93.527h74.022v15.332h-56.679v31.281h49.091v14.402h-49.091v33.604
				H526.587z"/>
			<path fill="#1B1C51" d="M625.232,108.858h-36.547v94.62h-17.5v-94.62h-36.701V93.527h90.748V108.858z"/>
			<path fill="#1B1C51" d="M661.471,93.527h15.176l43.361,109.951h-18.273l-11.615-29.888h-42.432l-11.459,29.888H617.8
				L661.471,93.527z M686.713,160.736l-17.654-47.232l-18.273,47.232H686.713z"/>
			<path fill="#1B1C51" d="M722.641,147.728c0-6.606,1.186-13.187,3.562-19.745c2.373-6.555,5.857-12.439,10.452-17.654
				c4.593-5.212,10.194-9.419,16.803-12.621c6.605-3.199,14.093-4.801,22.454-4.801c10.013,0,18.584,2.222,25.708,6.659
				c7.123,4.44,12.49,10.221,16.105,17.345l-13.628,9.137c-1.549-3.303-3.407-6.09-5.575-8.363c-2.168-2.27-4.545-4.077-7.124-5.42
				c-2.582-1.341-5.266-2.296-8.053-2.865c-2.787-0.566-5.474-0.852-8.053-0.852c-5.783,0-10.84,1.162-15.176,3.484
				s-7.976,5.396-10.918,9.214c-2.942,3.821-5.164,8.106-6.659,12.854c-1.497,4.75-2.245,9.5-2.245,14.247
				c0,5.369,0.875,10.48,2.632,15.331c1.755,4.854,4.206,9.137,7.356,12.854c3.148,3.716,6.892,6.686,11.228,8.905
				c4.336,2.221,9.083,3.329,14.247,3.329c2.684,0,5.444-0.333,8.285-1.006c2.839-0.67,5.574-1.754,8.207-3.252
				c2.633-1.496,5.058-3.381,7.279-5.653c2.219-2.27,4.051-5.006,5.498-8.208l14.401,8.208c-1.757,4.131-4.234,7.77-7.434,10.918
				c-3.201,3.15-6.813,5.807-10.841,7.975c-4.025,2.168-8.284,3.821-12.775,4.956s-8.904,1.704-13.24,1.704
				c-7.743,0-14.816-1.65-21.217-4.956c-6.402-3.303-11.924-7.612-16.569-12.931c-4.646-5.316-8.261-11.355-10.841-18.118
				C723.931,161.642,722.641,154.75,722.641,147.728z"/>
			<path fill="#1B1C51" d="M872.392,204.252c-7.848,0-14.998-1.572-21.448-4.723c-6.454-3.148-12.002-7.329-16.648-12.543
				c-4.646-5.212-8.234-11.174-10.763-17.886c-2.531-6.71-3.794-13.575-3.794-20.597c0-7.329,1.34-14.349,4.026-21.061
				c2.684-6.71,6.374-12.646,11.073-17.809c4.696-5.161,10.271-9.265,16.725-12.311c6.451-3.044,13.497-4.568,21.139-4.568
				c7.844,0,14.994,1.626,21.448,4.878c6.45,3.252,11.975,7.511,16.569,12.776c4.593,5.265,8.154,11.228,10.686,17.886
				c2.528,6.659,3.795,13.449,3.795,20.364c0,7.332-1.316,14.352-3.95,21.061c-2.632,6.712-6.325,12.621-11.071,17.731
				c-4.751,5.111-10.353,9.19-16.803,12.234C886.921,202.73,879.926,204.252,872.392,204.252z M837.393,148.502
				c0,5.164,0.825,10.17,2.478,15.021c1.65,4.854,4,9.137,7.046,12.854c3.045,3.716,6.736,6.686,11.073,8.904
				c4.336,2.221,9.188,3.33,14.557,3.33c5.575,0,10.504-1.162,14.789-3.484c4.283-2.323,7.922-5.394,10.918-9.214
				c2.993-3.818,5.265-8.104,6.813-12.854c1.549-4.747,2.323-9.601,2.323-14.557c0-5.265-0.827-10.298-2.478-15.099
				c-1.653-4.801-4.002-9.033-7.047-12.699c-3.046-3.664-6.712-6.606-10.995-8.827c-4.285-2.219-9.06-3.33-14.324-3.33
				c-5.575,0-10.53,1.162-14.866,3.484s-8.002,5.343-10.996,9.059c-2.995,3.717-5.291,7.976-6.891,12.776
				C838.191,138.669,837.393,143.547,837.393,148.502z"/>
			<path fill="#1B1C51" d="M935.42,203.478V93.527h39.024c8.878,0,16.647,1.447,23.307,4.336
				c6.659,2.891,12.233,6.814,16.725,11.769c4.491,4.956,7.871,10.763,10.144,17.422c2.27,6.659,3.407,13.759,3.407,21.293
				c0,8.362-1.267,15.927-3.795,22.687c-2.53,6.763-6.116,12.543-10.763,17.344c-4.646,4.801-10.273,8.518-16.88,11.15
				c-6.608,2.633-13.99,3.949-22.145,3.949H935.42z M1010.372,148.348c0-5.781-0.802-11.097-2.4-15.951
				c-1.603-4.852-3.948-9.006-7.046-12.466c-3.098-3.458-6.867-6.168-11.305-8.13c-4.44-1.959-9.5-2.942-15.177-2.942h-21.681
				v79.288h21.681c5.78,0,10.917-1.006,15.408-3.02s8.259-4.801,11.306-8.363c3.043-3.562,5.342-7.767,6.891-12.621
				C1009.598,159.292,1010.372,154.026,1010.372,148.348z"/>
			<path fill="#1B1C51" d="M1113.972,188.146v15.332h-75.417V93.527h74.023v15.332h-56.679v31.281h49.091v14.402h-49.091v33.604
				H1113.972z"/>
		</g>
		<g id="B_7_">
			<path fill="#EB5648" d="M271.525,162.739C261.783,150.78,249,143.687,232,141.458v-0.835c14-4.173,26.172-12.029,33.684-23.576
				c7.51-11.541,11.208-25.383,11.208-41.52c0-14.187-2.116-26.145-6.286-35.886c-4.174-9.734-10.032-17.525-17.545-23.368
				c-7.511-5.842-16.489-10.015-26.919-12.519C215.708,1.252,204.362,0,192.125,0H168v44h5.346c15.024,0,26.009,3.037,32.967,8.879
				c6.951,5.842,10.432,15.914,10.432,30.102c0,14.187-3.828,24.172-11.475,30.15c-7.654,5.985-19.822,8.869-36.511,8.869H107v43
				h70.521c6.676,0,12.794,0.192,18.362,1.582c5.56,1.395,10.359,3.574,14.393,7.049c4.031,3.481,7.234,7.946,9.6,13.645
				c2.36,5.705,3.548,12.909,3.548,21.528c0,17.251-4.455,29.065-13.354,35.46c-8.905,6.404-20.59,9.735-35.052,9.735H168v44h24.96
				c17.524,0,32.195-2.391,44.024-7.125c11.819-4.728,21.416-11.074,28.791-19.002c7.367-7.93,12.582-17.182,15.647-27.757
				c3.058-10.569,4.648-21.703,4.648-33.386C286.071,190.7,281.258,174.704,271.525,162.739z"/>
			<path fill="#EB5648" d="M108.597,254l-12.868-1.363c-6.674,0-11.783-2.251-13.871-7.041C79.771,240.799,78,235.319,78,228.856
				v-48.375c0-10.032-2.76-18.334-8.323-24.912C64.11,148.997,57,145.037,48,143.699v-0.668c9-1.337,16.11-5.292,21.677-11.87
				C75.24,124.589,78,116.281,78,106.251V68.319c0-6.463,1.771-12.211,3.857-17.008C83.945,46.521,89.055,44,95.729,44H137l0,0V0
				h1.054h-29.457H71.108C56.924,0,46.284,3.801,38.914,11.601C31.541,19.406,28,30.339,28,44.602v57.971
				c0,7.804-3.084,14.268-8.783,19.393C13.512,127.096,8,129.656,0,129.656v27.419c8,0,13.512,2.565,19.217,7.691
				C24.916,169.895,28,176.358,28,184.159v68.862c0,14.263,3.541,25.58,10.914,33.386C46.284,294.206,56.924,298,71.108,298h37.488
				H137v-44H108.597z"/>
		</g>
	</g>
	<g id="_x33__copy">
	</g>
	<g id="_x34__copy">
	</g>
</g>
</svg>
